<svg version="1.0" xmlns="http://www.w3.org/2000/svg" width="512" height="512" viewBox="0 0 512 512">
  <g transform="translate(0,512) scale(0.1,-0.1)" fill="#000000" stroke="none">
    <path d="M760 4360 c-88 -16 -180 -84 -230 -170 -32 -55 -35 -67 -35 -135 0 -68 3 -80 35 -135 50 -86 142 -154 230 -170 l40 -7 0 -1743 0 -1743 -40 -7 c-88 -16 -180 -84 -230 -170 -32 -55 -35 -67 -35 -135 0 -68 3 -80 35 -135 50 -86 142 -154 230 -170 l40 -7 1920 0 1920 0 40 7 c88 16 180 84 230 170 32 55 35 67 35 135 0 68 -3 80 -35 135 -50 86 -142 154 -230 170 l-40 7 0 1743 0 1743 40 7 c88 16 180 84 230 170 32 55 35 67 35 135 0 68 -3 80 -35 135 -50 86 -142 154 -230 170 l-40 7 -1920 0 c-1056 0 -1940 -3 -1960 -7z"/>
  </g>
</svg>